<svg width="15" height="23" viewBox="0 0 15 23" fill="none" xmlns="http://www.w3.org/2000/svg">
<path fill-rule="evenodd" clip-rule="evenodd" d="M13.7523 9.74093C13.2619 10.5916 12.5501 11.3364 11.6386 11.8626C8.87429 13.4586 5.33545 12.5104 3.73945 9.74606C2.14345 6.98171 3.09168 3.44288 5.85603 1.84688C6.76747 1.32066 7.76838 1.07664 8.7503 1.07729C7.75314 2.80816 7.67755 5.00184 8.74733 6.85476C9.81712 8.70768 11.7547 9.73906 13.7523 9.74093Z" fill="#2962FF"/>
<path fill-rule="evenodd" clip-rule="evenodd" d="M4.1275 22.5683C4.54 22.7734 4.9965 23 5.75 23C6.5035 23 6.96 22.7734 7.3725 22.5683L7.41632 22.5471C7.75431 22.3835 8.0412 22.2446 8.5 22.2446C8.995 22.2446 9.27 22.3795 9.6275 22.5683L9.67056 22.5892C10.0716 22.7838 10.5173 23 11.25 23C12.0042 23 12.4542 22.7763 12.8646 22.5723L12.8725 22.5683L12.8865 22.5614C13.2375 22.3865 13.5223 22.2446 14 22.2446V21.2032C13.269 21.2032 12.8045 21.4281 12.3967 21.6256L12.3775 21.6349L12.3635 21.6419C12.0125 21.8167 11.7277 21.9586 11.25 21.9586C10.766 21.9586 10.48 21.8237 10.1225 21.6349L10.1146 21.631C9.70423 21.4269 9.25416 21.2032 8.5 21.2032C7.76731 21.2032 7.32164 21.4194 6.92055 21.614L6.8775 21.6349L6.83368 21.6561C6.49568 21.8197 6.2088 21.9586 5.75 21.9586C5.255 21.9586 4.98 21.8237 4.6225 21.6349C4.21 21.4299 3.7535 21.2032 3 21.2032L3 22.2554C3.495 22.2554 3.77 22.3903 4.1275 22.5683ZM7.35329 17.7863C6.94546 17.9837 6.481 18.2086 5.75 18.2086C5.0075 18.2086 4.54 17.982 4.1275 17.777C3.77 17.5881 3.495 17.4532 3 17.4532L3 16.4011C3.7535 16.4011 4.21 16.6277 4.6225 16.8327C4.98 17.0216 5.255 17.1565 5.75 17.1565C6.245 17.1565 6.52 17.0216 6.8775 16.8327L6.92055 16.8119C7.32164 16.6173 7.76731 16.4011 8.5 16.4011C9.25416 16.4011 9.70423 16.6248 10.1146 16.8288L10.1225 16.8327C10.48 17.0216 10.755 17.1565 11.25 17.1565C11.745 17.1565 12.02 17.0216 12.3775 16.8327L12.3967 16.8234C12.8045 16.626 13.269 16.4011 14 16.4011V17.4532C13.5403 17.4532 13.2593 17.5895 12.9259 17.7511L12.8725 17.777L12.8294 17.7978C12.4284 17.9924 11.9827 18.2086 11.25 18.2086C10.4958 18.2086 10.0458 17.9849 9.63542 17.7809L9.6275 17.777C9.27 17.5881 8.995 17.4532 8.5 17.4532C8.0412 17.4532 7.75432 17.5921 7.41632 17.7558L7.3725 17.777L7.35329 17.7863ZM7.3725 15.3759C6.96 15.5809 6.4925 15.8076 5.75 15.8076C5.0075 15.8076 4.54 15.5809 4.1275 15.3759C3.77 15.1871 3.495 15.0522 3 15.0522L3 14C3.7535 14 4.21 14.2266 4.6225 14.4317C4.98 14.6205 5.255 14.7554 5.75 14.7554C6.2275 14.7554 6.51878 14.6103 6.87527 14.4328L6.8775 14.4317L6.88542 14.4277C7.29578 14.2237 7.74586 14 8.5 14C9.25416 14 9.70423 14.2237 10.1146 14.4277L10.1225 14.4317C10.48 14.6205 10.766 14.7554 11.25 14.7554C11.7277 14.7554 12.0125 14.6135 12.3635 14.4386L12.3775 14.4317C12.79 14.2266 13.2575 14 14 14V15.0522C13.5223 15.0522 13.2375 15.194 12.8865 15.3689L12.8725 15.3759L12.8646 15.3798C12.4542 15.5838 12.0042 15.8076 11.25 15.8076C10.4958 15.8076 10.0458 15.5838 9.63542 15.3798L9.6275 15.3759C9.27 15.1871 8.995 15.0522 8.5 15.0522C8.0225 15.0522 7.73122 15.1972 7.37473 15.3748L7.3725 15.3759ZM7.3533 20.1873C6.94546 20.3848 6.48101 20.6097 5.75 20.6097C5.0075 20.6097 4.54 20.3831 4.1275 20.1781C3.77 19.9892 3.495 19.8543 3 19.8543L3 18.8022C3.7535 18.8022 4.21 19.0288 4.6225 19.2338C4.98 19.4227 5.255 19.5576 5.75 19.5576C6.2088 19.5576 6.49569 19.4187 6.83368 19.255C6.84819 19.248 6.86279 19.2409 6.8775 19.2338C6.8918 19.2269 6.90614 19.2199 6.92055 19.2129C7.32164 19.0184 7.76731 18.8022 8.5 18.8022C9.25416 18.8022 9.70423 19.0259 10.1146 19.2299L10.1225 19.2338C10.48 19.4227 10.7715 19.5576 11.25 19.5576C11.7088 19.5576 11.9957 19.4187 12.3337 19.255C12.3482 19.248 12.3628 19.2409 12.3775 19.2338C12.3839 19.2307 12.3903 19.2276 12.3967 19.2245C12.8045 19.027 13.269 18.8022 14 18.8022V19.8543C13.505 19.8543 13.23 19.9892 12.8725 20.1781C12.8582 20.185 12.8438 20.1919 12.8294 20.1989C12.4284 20.3935 11.9827 20.6097 11.25 20.6097C10.4958 20.6097 10.0458 20.386 9.63542 20.182L9.6275 20.1781C9.27 19.9892 8.995 19.8543 8.5 19.8543C8.005 19.8543 7.73 19.9892 7.3725 20.1781L7.3533 20.1873Z" fill="#2962FF"/>
</svg>
